HIERARCHY
ROOT Hips
{
	OFFSET 0.000000 0.000000 0.000000
	CHANNELS 6 Xposition Yposition Zposition Zrotation Yrotation Xrotation 
	JOINT LHipJoint
	{
		OFFSET 0.000000 0.000000 0.000000
		CHANNELS 3 Zrotation Yrotation Xrotation
		JOINT LeftUpLeg
		{
			OFFSET 1.363060 -1.794630 0.839290
			CHANNELS 3 Zrotation Yrotation Xrotation
			JOINT LeftLeg
			{
				OFFSET 2.448110 -6.726130 0.000000
				CHANNELS 3 Zrotation Yrotation Xrotation
				JOINT LeftFoot
				{
					OFFSET 2.562200 -7.039590 0.000000
					CHANNELS 3 Zrotation Yrotation Xrotation
					JOINT LeftToeBase
					{
						OFFSET 0.157640 -0.433110 2.322550
						CHANNELS 3 Zrotation Yrotation Xrotation
						End Site
						{
							OFFSET 0.000000 0.000000 0.000000
						}
					}
				}
			}
		}
	}
	JOINT RHipJoint
	{
		OFFSET 0.000000 0.000000 0.000000
		CHANNELS 3 Zrotation Yrotation Xrotation
		JOINT RightUpLeg
		{
			OFFSET -1.305520 -1.794630 0.839290
			CHANNELS 3 Zrotation Yrotation Xrotation
			JOINT RightLeg
			{
				OFFSET -2.542530 -6.985550 0.000000
				CHANNELS 3 Zrotation Yrotation Xrotation
				JOINT RightFoot
				{
					OFFSET -2.568260 -7.056230 0.000000
					CHANNELS 3 Zrotation Yrotation Xrotation
					JOINT RightToeBase
					{
						OFFSET -0.164730 -0.452590 2.363150
						CHANNELS 3 Zrotation Yrotation Xrotation
						End Site
						{
							OFFSET 0.000000 0.000000 0.000000
						}
					}
				}
			}
		}
	}
	JOINT LowerBack
	{
		OFFSET 0.000000 0.000000 0.000000
		CHANNELS 3 Zrotation Yrotation Xrotation
		JOINT Spine
		{
			OFFSET 0.028270 2.035590 -0.193380
			CHANNELS 3 Zrotation Yrotation Xrotation
			JOINT Spine1
			{
				OFFSET 0.056720 2.048850 -0.042750
				CHANNELS 3 Zrotation Yrotation Xrotation
				JOINT Neck
				{
					OFFSET 0.000000 0.000000 0.000000
					CHANNELS 3 Zrotation Yrotation Xrotation
					JOINT Neck1
					{
						OFFSET -0.054170 1.746240 0.172020
						CHANNELS 3 Zrotation Yrotation Xrotation
						JOINT Head
						{
							OFFSET 0.104070 1.761360 -0.123970
							CHANNELS 3 Zrotation Yrotation Xrotation
							End Site
							{
								OFFSET 0.000000 0.000000 0.000000
							}
						}
					}
				}
				JOINT LeftShoulder
				{
					OFFSET 0.000000 0.000000 0.000000
					CHANNELS 3 Zrotation Yrotation Xrotation
					JOINT LeftArm
					{
						OFFSET 3.362410 1.200890 -0.311210
						CHANNELS 3 Zrotation Yrotation Xrotation
						JOINT LeftForeArm
						{
							OFFSET 4.983000 -0.000000 -0.000000
							CHANNELS 3 Zrotation Yrotation Xrotation
							JOINT LeftHand
							{
								OFFSET 3.483560 -0.000000 -0.000000
								CHANNELS 3 Zrotation Yrotation Xrotation
								JOINT LeftFingerBase
								{
									OFFSET 0.000000 0.000000 0.000000
									CHANNELS 3 Zrotation Yrotation Xrotation
									JOINT LeftHandIndex1
									{
										OFFSET 0.715260 -0.000000 -0.000000
										CHANNELS 3 Zrotation Yrotation Xrotation
										End Site
										{
											OFFSET 0.000000 0.000000 0.000000
										}
									}
								}
								JOINT LThumb
								{
									OFFSET 0.000000 0.000000 0.000000
									CHANNELS 3 Zrotation Yrotation Xrotation
									End Site
									{
										OFFSET 0.000000 0.000000 0.000000
									}
								}
							}
						}
					}
				}
				JOINT RightShoulder
				{
					OFFSET 0.000000 0.000000 0.000000
					CHANNELS 3 Zrotation Yrotation Xrotation
					JOINT RightArm
					{
						OFFSET -3.136600 1.374050 -0.404650
						CHANNELS 3 Zrotation Yrotation Xrotation
						JOINT RightForeArm
						{
							OFFSET -5.241900 -0.000000 -0.000000
							CHANNELS 3 Zrotation Yrotation Xrotation
							JOINT RightHand
							{
								OFFSET -3.444170 -0.000000 -0.000000
								CHANNELS 3 Zrotation Yrotation Xrotation
								JOINT RightFingerBase
								{
									OFFSET 0.000000 0.000000 0.000000
									CHANNELS 3 Zrotation Yrotation Xrotation
									JOINT RightHandIndex1
									{
										OFFSET -0.622530 -0.000000 -0.000000
										CHANNELS 3 Zrotation Yrotation Xrotation
										End Site
										{
											OFFSET 0.000000 0.000000 0.000000
										}
									}
								}
								JOINT RThumb
								{
									OFFSET 0.000000 0.000000 0.000000
									CHANNELS 3 Zrotation Yrotation Xrotation
									End Site
									{
										OFFSET 0.000000 0.000000 0.000000
									}
								}
							}
						}
					}
				}
			}
		}
	}
}
MOTION
Frames: 5
Frame Time: 0.008333
0.930289 17.917569 -2.825201 -3.798113 -2.178435 -2.269390 0.754289 1.157614 0.593881 -12.153934 -8.427814 -25.480829 3.732403 13.003559 38.412572 -1.635506 8.803379 6.964473 0.004400 0.429500 1.180100 -2.059007 -2.466395 1.128811 31.852345 9.226240 -1.164653 -1.170279 -7.035111 22.798478 1.456655 -7.362964 -2.152510 -0.027900 -1.078600 2.965100 4.072421 2.075277 6.494609 1.153788 2.718674 -1.219092 1.078866 1.810922 -2.020402 -8.095177 -2.460477 -11.314420 2.531408 -2.077138 14.981083 2.590500 -1.684100 9.890500 -7.780565 2.887531 -2.137860 -84.628571 2.954543 9.627495 9.446647 -17.987416 -1.678529 -1.692831 -3.331945 11.968810 17.449412 22.446491 8.350600 -7.125000 0.000000 0.000000 -12.574000 56.835300 -3.687200 6.001422 -1.915530 -2.057804 78.601216 6.008566 16.266617 -14.891185 22.369677 -3.986908 1.318654 -0.732908 5.578340 -17.364563 12.755042 -4.459800 7.125000 0.000000 0.000000 5.915100 -16.026500 4.074200 
0.932441 17.906500 -2.709798 -3.708202 -2.356589 -2.103045 0.618090 1.139592 0.588373 -12.011009 -9.038277 -25.155739 3.114874 12.294295 35.844200 -1.894428 9.789701 7.135582 0.007600 0.563000 1.547100 -2.008954 -2.466313 1.159705 31.689458 9.129997 -0.949230 -1.166822 -7.021686 22.791768 1.392270 -7.118441 -2.503536 -0.025700 -1.035300 2.846100 3.948553 2.143139 6.516171 1.115192 2.801771 -1.349401 1.034585 1.862773 -2.461448 -8.054291 -2.341384 -10.831866 2.549072 -1.957819 15.070010 2.609400 -1.634500 9.827200 -7.781559 2.912271 -2.168985 -84.572036 3.677563 9.514537 9.341406 -17.826342 -1.615684 -1.615793 -3.477069 12.091780 16.791282 23.778103 8.392700 -7.125000 0.000000 0.000000 -14.197700 58.116900 -4.617300 5.940000 -1.920081 -2.089784 78.675228 5.747553 16.738093 -15.260270 22.882037 -4.191768 1.270098 -0.652009 5.133603 -16.835776 12.356606 -4.164700 7.125000 0.000000 0.000000 6.312000 -16.555200 4.278100 
0.936951 17.896354 -2.591424 -3.888485 -2.566144 -1.827367 0.490242 1.111066 0.559949 -11.544949 -9.614884 -24.943651 2.519757 11.567544 33.300310 -2.097184 10.476714 6.957846 0.010800 -0.671500 -1.845300 -1.977693 -2.459219 1.172675 31.840643 9.085317 -0.776244 -1.160070 -7.002116 22.758604 1.347275 -6.952784 -2.767083 -0.017300 -0.849800 2.335600 4.105817 2.221982 6.287161 1.143830 2.897059 -1.362765 1.025600 1.915424 -2.375215 -8.066489 -2.295994 -10.811934 2.470499 -1.882354 15.011235 2.585500 -1.608100 9.776800 -7.798130 2.909363 -2.128814 -84.629636 3.490831 8.875785 9.019443 -17.240199 -1.484714 -1.622343 -3.401249 12.890937 16.355853 23.265101 8.005300 -7.125000 0.000000 0.000000 -14.356100 57.452600 -4.439200 5.918467 -1.914587 -2.108438 78.529515 5.975165 17.325539 -15.608803 23.357722 -4.381142 1.264698 -0.559436 4.521631 -16.708211 11.824328 -3.937200 7.125000 0.000000 0.000000 6.404200 -17.199000 4.250900 
0.938796 17.886105 -2.474382 -4.189166 -2.829420 -1.697762 0.363409 1.091678 0.526574 -10.885145 -10.195299 -24.598876 1.973256 10.827541 30.806302 -2.237229 11.030161 7.344957 0.026700 -1.055500 -2.901400 -1.951839 -2.455984 1.175815 32.166137 9.037682 -0.404595 -1.147057 -6.962528 22.672123 1.314093 -6.828453 -2.934135 -0.019400 -0.899000 2.470900 4.409314 2.352622 6.156858 1.178953 3.073645 -1.295419 0.955246 2.005043 -2.067644 -8.016433 -2.360575 -11.157587 2.336095 -1.943550 14.988640 2.506200 -1.642400 9.831100 -7.817816 2.886213 -2.068806 -84.666871 2.997553 8.450515 8.643752 -16.523365 -1.316829 -1.618097 -3.404667 13.320183 15.959089 23.411689 7.836800 -7.125000 0.000000 0.000000 -14.896100 57.511900 -4.632600 5.920118 -1.904570 -2.114586 78.471310 6.494978 17.532698 -15.906347 23.744535 -4.534738 1.290759 -0.539846 4.253519 -17.021389 11.818477 -4.007700 7.125000 0.000000 0.000000 6.170400 -17.196800 4.094200 
0.942793 17.886412 -2.349449 -4.070714 -2.991518 -1.565401 0.226330 1.080737 0.507041 -10.694091 -10.913489 -24.148057 1.477301 10.093010 28.455502 -2.354023 11.465845 7.587834 0.033800 -1.186100 -3.261100 -1.902863 -2.463318 1.189177 31.933003 8.826032 -0.083658 -1.117058 -6.893524 22.494761 1.237283 -6.531266 -3.141366 -0.027600 -1.072200 2.947600 4.267324 2.431140 5.921439 1.170812 3.144092 -1.284724 1.015763 2.045779 -1.910879 -8.105345 -2.359373 -11.319471 2.325612 -1.904031 15.142931 2.518000 -1.638600 9.933200 -7.808949 2.909253 -2.070773 -84.774058 3.265377 8.378042 8.555117 -16.378520 -1.280345 -1.571836 -3.439268 13.217945 15.615609 23.629904 7.709100 -7.125000 0.000000 0.000000 -15.446500 57.663800 -4.866100 5.882449 -1.919328 -2.129555 78.393279 6.689926 17.944033 -16.220611 24.174982 -4.704690 1.328700 -0.594892 3.826072 -17.452509 12.617285 -4.399800 7.125000 0.000000 0.000000 5.861500 -16.266400 4.006300 
